<svg xmlns="http://www.w3.org/2000/svg" viewBox="0 0 1947.8 2397.88"><defs><style>.cls-1{fill:#bf2878;}.cls-2{fill:#fff;}</style></defs><title>Asset 15</title><g id="Layer_2" data-name="Layer 2"><g id="desktop"><path class="cls-1" d="M5.77,2397.88s-9.76-11.66-3.9-17.49c0,0,4.54-2.59,7.82.65A5.82,5.82,0,0,1,10.9,2388l-4.14,8.58Z"/><path class="cls-2" d="M1947.8,149.88c-22-7.26-23.5-31.91-23.5-31.91v-43c0-41.39-31.52-74.94-70.4-74.94H1381.64c-38.88,0-70.4,33.55-70.4,74.94s31.52,74.94,70.4,74.94H1853.9a67.4,67.4,0,0,0,42.79-15.45C1910,142.41,1927.61,149.64,1947.8,149.88Z"/></g></g></svg>