<svg xmlns="http://www.w3.org/2000/svg" viewBox="0 0 2622.59 2339.47"><defs><style>.cls-1{fill:#bf2878;}.cls-2,.cls-3,.cls-4{fill:#fff;}.cls-3,.cls-4{stroke:#fff;stroke-miterlimit:10;stroke-width:12px;}.cls-3{stroke-linecap:round;}</style></defs><title>messages</title><g id="Layer_2" data-name="Layer 2"><g id="desktop"><path class="cls-1" d="M5.77,18.47S-4,6.81,1.87,1c0,0,4.54-2.59,7.82.65A5.82,5.82,0,0,1,10.9,8.54L6.76,17.12Z"/><circle class="cls-2" cx="2520.02" cy="2170.53" r="11.43"/><circle class="cls-2" cx="2554.31" cy="2181.96" r="11.43"/><circle class="cls-2" cx="2488.31" cy="2192.13" r="10.66"/><path class="cls-2" d="M2519.15,2211.19h4.35a28.79,28.79,0,0,1,28.79,28.79v5.84a8,8,0,0,1-8,8h-46.14a9.82,9.82,0,0,1-9.82-9.82v-2a30.84,30.84,0,0,1,30.84-30.84Z"/><line class="cls-3" x1="2431.88" y1="2301.75" x2="2616.59" y2="2301.75"/><line class="cls-4" x1="2464.53" y1="2333.47" x2="2578.34" y2="2333.47"/></g></g></svg>