<?xml version="1.0" encoding="utf-8"?>
<!-- Generator: Adobe Illustrator 22.1.0, SVG Export Plug-In . SVG Version: 6.00 Build 0)  -->
<svg version="1.1" id="Layer_1" xmlns="http://www.w3.org/2000/svg" xmlns:xlink="http://www.w3.org/1999/xlink" x="0px" y="0px"
	 viewBox="0 0 2605.2 2715.3" style="enable-background:new 0 0 2605.2 2715.3;" xml:space="preserve">
<style type="text/css">
	.st0{fill:#BF2878;}
	.st1{fill:none;stroke:#FFFFFF;stroke-width:20;stroke-linecap:round;stroke-linejoin:round;}
	.st2{fill:none;stroke:#FFFFFF;stroke-width:20;stroke-miterlimit:10;}
</style>
<title>Asset 26</title>
<path class="st0" d="M-1285.3-1161.3c0,0-9.8-11.7-3.9-17.5c0,0,4.5-2.6,7.8,0.7c1.9,1.8,2.4,4.6,1.2,6.9l-4.1,8.6L-1285.3-1161.3z"
	/>
<g>
	<path class="st1" d="M1978.8,839.3c-21.5-64.2-57.8-122.4-105.9-169.9c-173.8-173.6-455.4-173.6-629.2,0l-34.7,35.6l-34.8-35.6
		c-172.2-175.5-454.1-178.2-629.6-6s-178.2,454.1-6,629.6c2.1,2.2,4.3,4.3,6.4,6.4l34.8,34.8l629.1,629.1l102.3-102.3"/>
	<circle class="st2" cx="1653.9" cy="1011.1" r="89"/>
	<circle class="st2" cx="1921" cy="1100" r="89"/>
	<circle class="st2" cx="1387" cy="1100" r="89"/>
	<path class="st2" d="M1659.3,1247h11.6c136.5,0,247.1,110.6,247.1,247.1v32.9c0,37.8-30.7,68.5-68.5,68.5H1479
		c-46.5,0-84.3-37.7-84.3-84.3v0l0,0c0-146,118.3-264.3,264.3-264.3l0,0L1659.3,1247z"/>
</g>
</svg>
