<svg xmlns="http://www.w3.org/2000/svg" viewBox="0 0 4212.74 1286.96"><defs><style>.cls-1{fill:#bf2878;}.cls-2{fill:none;stroke:#ffbe51;stroke-linecap:round;stroke-miterlimit:10;stroke-width:7px;}</style></defs><title>Asset 31</title><g id="Layer_2" data-name="Layer 2"><g id="desktop"><path class="cls-1" d="M5.77,18.47S-4,6.81,1.87,1c0,0,4.54-2.59,7.82.65A5.82,5.82,0,0,1,10.9,8.54L6.76,17.12Z"/><path class="cls-2" d="M4198.58,1189.13c-14.61-14.61-39-14.14-54.18,1l-1,1-1-1c-15.19-15.18-39.57-15.65-54.18-1s-14.14,39,1,54.18l1,1,29.21,29.21a33.82,33.82,0,0,0,47.85,0l29.21-29.21,1-1C4212.72,1228.12,4213.19,1203.74,4198.58,1189.13Z"/></g></g></svg>