<?xml version="1.0" encoding="utf-8"?>
<!-- Generator: Adobe Illustrator 22.1.0, SVG Export Plug-In . SVG Version: 6.00 Build 0)  -->
<svg version="1.1" id="Layer_1" xmlns="http://www.w3.org/2000/svg" xmlns:xlink="http://www.w3.org/1999/xlink" x="0px" y="0px"
	 viewBox="0 0 2605.2 2715.3" style="enable-background:new 0 0 2605.2 2715.3;" xml:space="preserve">
<style type="text/css">
	.st0{fill:#BF2878;}
	.st1{fill:none;stroke:#FFFFFF;stroke-width:40;stroke-linecap:round;stroke-linejoin:round;}
</style>
<title>Asset 26</title>
<path class="st0" d="M-1285.3-1161.3c0,0-9.8-11.7-3.9-17.5c0,0,4.5-2.6,7.8,0.7c1.9,1.8,2.4,4.6,1.2,6.9l-4.1,8.6L-1285.3-1161.3z"
	/>
<path class="st0" d="M-3472.6-1950.2c0,0-9.8-11.7-3.9-17.5c0,0,4.5-2.6,7.8,0.7c1.9,1.8,2.4,4.6,1.2,6.9l-4.1,8.6L-3472.6-1950.2z"
	/>
<g>
	<polyline class="st1" points="1993.8,1040.9 1993.8,1978.9 611.4,1978.9 611.4,1040.9 	"/>
	<polyline class="st1" points="414,1189 1302.6,399.1 2191.3,1189 	"/>
	<path class="st1" d="M1034.1,1189h537c15.3,0,27.7,12.4,27.7,27.7v762.2l0,0h-592.4l0,0v-762.2
		C1006.4,1201.4,1018.8,1189,1034.1,1189z"/>
</g>
</svg>
