<svg xmlns="http://www.w3.org/2000/svg" viewBox="0 0 2212.14 2343.94"><defs><style>.cls-1{fill:#bf2878;}.cls-2,.cls-3{fill:none;stroke:#fff;stroke-miterlimit:10;}.cls-2{stroke-width:12px;}.cls-3{stroke-width:4px;}</style></defs><title>seartch</title><g id="Layer_2" data-name="Layer 2"><g id="desktop"><path class="cls-1" d="M5.77,18.47S-4,6.81,1.87,1c0,0,4.54-2.59,7.82.65A5.82,5.82,0,0,1,10.9,8.54L6.76,17.12Z"/><line class="cls-2" x1="2162.17" y1="2293.98" x2="2207.9" y2="2339.7"/><circle class="cls-2" cx="2105.02" cy="2236.82" r="80.02"/><circle class="cls-3" cx="2103.02" cy="2202.53" r="11.43"/><circle class="cls-3" cx="2137.31" cy="2213.96" r="11.43"/><circle class="cls-3" cx="2068.73" cy="2213.96" r="11.43"/><path class="cls-3" d="M2099.56,2234.39h9a28.79,28.79,0,0,1,28.79,28.79v8.91a8,8,0,0,1-8,8h-50.74a9.82,9.82,0,0,1-9.82-9.82v-5.07A30.84,30.84,0,0,1,2099.56,2234.39Z"/></g></g></svg>